<svg xmlns="http://www.w3.org/2000/svg" xmlns:xlink="http://www.w3.org/1999/xlink" viewBox="0 0 1200 846"><defs><style>.cls-1,.cls-5{fill:none;}.cls-2{fill:#ffcd00;}.cls-3{clip-path:url(#clip-path);}.cls-4{fill:#fff;}.cls-5{stroke:#010001;stroke-linejoin:round;stroke-width:8px;}</style><clipPath id="clip-path"><rect class="cls-1" x="-11" y="-7.25" width="1222" height="860.49"/></clipPath></defs><title>yellowpages-icons-design-by-loogart</title><g id="Layer_1" data-name="Layer 1"><rect class="cls-2" x="-11" y="-7.25" width="1222" height="860.49"/></g><g id="Layer_3" data-name="Layer 3"><g class="cls-3"><polygon class="cls-4" points="362.65 274.34 310.82 272.66 310.82 281.07 362.65 281.07 362.65 274.34"/><polygon class="cls-4" points="362.65 297.32 310.82 299.01 310.82 289.75 362.65 290.6 362.65 297.32"/><polygon class="cls-4" points="362.65 309.37 310.82 307.69 310.82 316.1 362.65 316.1 362.65 309.37"/><polygon class="cls-4" points="310.82 332.35 362.65 334.03 362.65 324.78 310.82 325.62 310.82 332.35"/><polygon class="cls-4" points="310.82 342.71 362.65 341.03 362.65 349.44 310.82 349.44 310.82 342.71"/><polygon class="cls-4" points="310.82 365.7 362.65 367.38 362.65 358.13 310.82 358.97 310.82 365.7"/><polygon class="cls-4" points="310.82 377.74 362.65 376.06 362.65 384.47 310.82 384.47 310.82 377.74"/><polygon class="cls-4" points="362.65 400.72 310.82 402.41 310.82 393.15 362.65 393.99 362.65 400.72"/><polygon class="cls-4" points="310.82 420.7 362.65 422.38 362.65 413.13 310.82 413.97 310.82 420.7"/><polygon class="cls-4" points="362.65 433.55 310.82 434.4 310.82 429.77 362.65 430.19 362.65 433.55"/><polygon class="cls-4" points="768.87 305.28 761 304.26 761.79 328.99 768.87 328.99 768.87 305.28"/><polygon class="cls-4" points="785.68 327.98 777.81 328.99 778.6 304.26 785.68 304.26 785.68 327.98"/><rect class="cls-4" x="743.95" y="304.05" width="5.77" height="25.15"/><polygon class="cls-4" points="760.75 373.13 768.63 371.7 767.84 406.26 760.75 406.26 760.75 373.13"/><polygon class="cls-4" points="743.95 404.84 751.82 406.26 751.03 371.7 743.95 371.7 743.95 404.84"/><rect class="cls-4" x="779.91" y="371.41" width="5.77" height="35.14" transform="translate(1565.59 777.97) rotate(180)"/><rect class="cls-4" x="797.74" y="371.41" width="5.77" height="35.14" transform="translate(1601.24 777.97) rotate(180)"/><polygon class="cls-4" points="733.72 372.12 727.94 371.41 727.94 406.55 733.72 406.55 733.72 372.12"/><polygon class="cls-4" points="63.01 221.19 55.18 234.76 70.85 234.76 63.01 221.19"/><polygon class="cls-4" points="491.4 195.12 515.78 194.33 515.78 159.59 510.13 159.59 491.4 195.12"/><polygon class="cls-4" points="547.83 195.12 523.45 195.12 523.45 159.59 527.53 160.38 547.83 195.12"/><polygon class="cls-4" points="142.1 221.19 203.76 221.19 202.78 225.83 142.1 227.94 142.1 221.19"/><polygon class="cls-4" points="142.1 236.04 203.76 236.04 203.76 242.8 142.1 240.68 142.1 236.04"/><polygon class="cls-4" points="142.1 250.89 203.76 250.89 203.76 255.53 142.1 257.65 142.1 250.89"/><polygon class="cls-4" points="142.1 300.99 199.46 300.99 198.56 296.35 142.1 294.23 142.1 300.99"/><polygon class="cls-4" points="142.1 286.13 199.46 286.13 199.46 279.38 142.1 281.5 142.1 286.13"/><polygon class="cls-4" points="142.1 271.28 203.76 271.28 203.76 266.64 142.1 264.53 142.1 271.28"/><polygon class="cls-4" points="142.1 311.56 199.46 311.56 198.56 316.2 142.1 318.31 142.1 311.56"/><polygon class="cls-4" points="142.1 326.41 186.95 326.41 186.95 333.16 142.1 331.05 142.1 326.41"/><polygon class="cls-4" points="142.1 341.26 181.34 341.26 181.34 345.9 142.1 348.01 142.1 341.26"/><rect class="cls-4" x="893.9" y="350.45" width="27.68" height="5.76"/><rect class="cls-4" x="893.9" y="375.82" width="27.68" height="5.76"/><polygon class="cls-4" points="921.58 363.13 893.9 363.13 893.9 368.89 922.37 368.28 921.58 363.13"/><polygon class="cls-4" points="894.68 388.79 922.37 388.79 922.37 394.55 893.9 393.94 894.68 388.79"/><polygon class="cls-4" points="659.46 258.82 632.7 258.82 632.7 266.66 659.46 267.45 659.46 258.82"/><polygon class="cls-4" points="674.78 274.79 617.38 274.79 618.16 284.21 674.78 282.63 674.78 274.79"/><polygon class="cls-4" points="1065.98 451.44 886.52 451.44 864.9 460.84 1086.05 460.84 1065.98 451.44"/><polygon class="cls-4" points="426.06 304.69 398.45 304.69 398.45 296.95 426.06 298.67 426.06 304.69"/><polygon class="cls-4" points="398.45 320.89 426.06 320.89 426.06 313.14 398.45 314.86 398.45 320.89"/><rect class="cls-4" x="398.45" y="332.23" width="27.61" height="5.74"/><polygon class="cls-4" points="398.45 407.44 426.06 407.44 426.06 399.69 398.45 401.41 398.45 407.44"/><polygon class="cls-4" points="426.06 423.63 398.45 423.63 398.45 415.89 426.06 417.61 426.06 423.63"/><rect class="cls-4" x="398.45" y="349.3" width="27.61" height="5.74"/><rect class="cls-4" x="398.45" y="364.3" width="27.61" height="8.07"/><polygon class="cls-4" points="427.44 384.43 398.45 379.84 396.56 390.16 427.44 390.16 427.44 384.43"/><path class="cls-5" d="M-704,507.64h175.12V486.83h16.77l1.58-37.43h15.72S-501.92,397-464.88,397V362.71l11.43,11.59s.91,22.15.35,24.84c11,3.54,23.42,20.84,12.4,28.71s-25.39,6.1-25.39-.89,20.68-11.75,30.41,6.57c3.44,7.9.73,15.87.73,15.87h16.09l1.21,37H-380c35.31,0,44,13.27,5.66,13.27-21.64,0-25.18-6.69-25.18-40.87,0-34.58.59-91.08.59-97.31h23.9l-.32-25.25,33.91-1.44s1.57,85.7,1.57,109.41c22.27,0,62.41-10.76,62.41-37.78,0-15-11.8-15.87-11.8.52,0,34.37,44.05,38.91,66.1,38.91-.77-59.9,0-87.19,0-87.19h11v-40.4L-194,300.59l14.43,19.75s-.28,10.36-.28,27.42-3.41,22.56-11,22.56c-9.43,0-13.3-4.12-13.3-12,0-7.43,6.21-12.94,14.08-12.94s18.9,6.14,18.9,18.22c0,0-1.59,51.15-1.59,61.7,0,27.49-9.17,37.45-19.92,37.45-17.12,0,5.31-40.55,57.56-40.55,1.47-146.6,2.33-168.3,2.33-168.3l49.22-.14V420.83l40.45-5.25V322.42l15,18.31L-11.7,320.6V461.5l79-15.67V394.59L1.67,407.18V390.32c7-1,11.55-1.6,17-3,0-41-.16-100.16-.16-113.55H35V232.94H47.72L63.1,206.07s14.38,21.81,15.57,26c3.54,12.6-11.81,19.62-16.92,14.5s2.75-17.71,30.7-17.71c0,12.09.13,35.48.13,35.48h16.93V374.91l32.26-5.18V203.84L120,190.72l86.31.08,6.9-80.42,4.22,80.26,16.7,0c-.06,0,1.91,122.51,1.91,151.21,0,63.76-19.42,81.34-42.51,81.34-28.33,0-7.87-67.91,73.41-67.91V249.16h97.55c0,59.63.31,212.14.31,222.44-17.09,4.83-37.72,7.38-53.44,11,0-33.77,1.57-254.84,1.57-265l78.33,0v31.58c11.48.84,21.43,1.84,36.25,3.17,0,95.05-.19,197.51-.19,197.51l-36,6.05V274s70.07,9.44,81.35,9.44V206.13c11.8,0,35.8-3.73,35.8,11.35,0,8.4-27,11.29-27-22.82,9.29-19,28.94-50.45,28.94-50.45H528s21,32.74,31.5,49.46c-1.26,31.69-29.58,32.1-33.59,23.12-6.64-15.84,24.93-14.33,39.88-14.33v166s37.76,1.31,57.17,1.31c34.65,0,32.45,34,14.08,34-29.81,0-29.22-31.43-29.22-76.09V203.82s24.94,22.84,24.94,32c0,11.83-18.37,12.6-14.76,1.64,2.46-7.49,10-11.36,26.24-11.36s23.94,3.64,27.62,11.36c5,10.43-13.46,13.58-13.46,0,0-14,27.47-35.34,27.47-35.34V435.52l135.86,15.74V359.38H728.09V287.47h64.65v-28H754.17V226.6h32.2V246H740v27.46h61.54v69.7H711.13V419H864.47V323.75h18V301h54.31v20.14c0,14.7-6.82,17.25-13.64,17.25s-3.94-18.82,20.72-18.82h10.24V494H809.53s36.22-65.81,162.16-65.81c69.26,0,130.29,21,169.31,61.52-125.24,0-132.93,11.65-86.88-62.38s67.56-105.45,66.56-157.92h31.52s-26.17,124.9-47,146.4c-18.85,19.49-28-.51,63-142.36h31.48s-64.54,58.35-67.69,154.67c-1.57,20,16.53,65.88,234.57,65.88"/></g></g></svg>