<svg xmlns="http://www.w3.org/2000/svg" viewBox="0 0 300.8 111.39"><defs><style>.cls-1,.cls-3{fill:#222;}.cls-1{stroke:#333;stroke-miterlimit:10;stroke-width:4px;}.cls-2{fill:#f05b58;}.cls-3{fill-rule:evenodd;}.cls-4{font-size:27.45px;fill:#fff;font-family:SFUIDisplay-Regular, SF UI Display;}.cls-5{letter-spacing:-0.01em;}.cls-6{letter-spacing:0em;}</style></defs><title>made-by-loogart</title><g id="Layer_2" data-name="Layer 2"><g id="Layer_1-2" data-name="Layer 1"><rect class="cls-1" x="2" y="2" width="296.8" height="107.39" rx="14.51" ry="14.51"/><path class="cls-2" d="M175.59,48.22c-5.13,0-8.42,3.37-8.42,8.82s3.24,8.84,8.42,8.84S184,62.58,184,57,180.73,48.22,175.59,48.22Zm0,14.17c-2.39,0-3.83-2-3.83-5.35s1.44-5.34,3.83-5.34,3.81,2,3.81,5.34S178,62.39,175.59,62.39Z"/><path class="cls-2" d="M155.81,43.22h-4.68V62.16a2.41,2.41,0,0,1,4.47,1.27,2.4,2.4,0,0,1-1.33,2.15h11.32V61.7h-9.78Z"/><path class="cls-2" d="M216.77,51.44h-.07a5.65,5.65,0,0,0-5.29-3.12c-4.32,0-7,3.33-7,8.68s2.79,8.48,7,8.48a5.56,5.56,0,0,0,5.28-3h.09v3c0,2-1.36,3.38-3.79,3.38-1.8,0-3.17-.83-3.54-2h-4.44c.35,3,3.41,5.2,7.84,5.2,5.08,0,8.45-2.6,8.45-6.68V48.52h-4.46ZM212.86,62C210.5,62,209,60.11,209,57s1.5-5,3.84-5,3.87,2,3.87,5S215.21,62,212.86,62Z"/><path class="cls-2" d="M262.73,52V48.52h-3.16v-3.8H255v3.8h-2.3V52H255v9c0,3.33,1.56,4.67,5.51,4.67a12.14,12.14,0,0,0,2.18-.19V62.11a8.77,8.77,0,0,1-1.12.08c-1.39,0-2-.64-2-1.95V52Z"/><path class="cls-2" d="M246.54,51.57h-.09v-3h-4.37V65.58h4.52V56c0-2.38,1.35-3.8,3.65-3.8a5,5,0,0,1,1.67.26v-4a4.71,4.71,0,0,0-1.32-.17A4,4,0,0,0,246.54,51.57Z"/><path class="cls-2" d="M231.79,48.22c-4.26,0-7.21,2.25-7.33,5.51h4.14a2.77,2.77,0,0,1,3-2.11c1.87,0,3,.9,3,2.54V55.3l-4.26.26c-4.35.26-6.72,2-6.72,5.11s2.46,5.11,5.74,5.11A5.86,5.86,0,0,0,234.58,63h.09v2.63H239V53.88C239,50.47,236.17,48.22,231.79,48.22Zm2.8,11.1c0,1.86-1.67,3.17-3.76,3.17-1.64,0-2.71-.79-2.71-2.05s1-2,2.9-2.13l3.57-.24Z"/><path class="cls-2" d="M194.2,48.22c-5.13,0-8.42,3.37-8.42,8.82s3.24,8.84,8.42,8.84,8.41-3.3,8.41-8.84S199.34,48.22,194.2,48.22Zm0,14.17c-2.39,0-3.83-2-3.83-5.35s1.44-5.34,3.83-5.34S198,53.68,198,57,196.59,62.39,194.2,62.39Z"/><polygon class="cls-3" points="156.45 61.7 158.86 65.6 155.04 65.6 156.45 61.7"/><path class="cls-2" d="M153.19,59.74a3.69,3.69,0,1,0,3.68,3.69A3.69,3.69,0,0,0,153.19,59.74Zm0,6.1a2.42,2.42,0,1,1,2.41-2.41A2.41,2.41,0,0,1,153.19,65.84Z"/><text class="cls-4" transform="translate(38.07 65.03)">Made <tspan class="cls-5" x="73.86" y="0">b</tspan><tspan class="cls-6" x="89.17" y="0">y</tspan></text></g></g></svg>