<?xml version="1.0" encoding="UTF-8"?>
<svg width="181px" height="48px" viewBox="0 0 181 48" version="1.1" xmlns="http://www.w3.org/2000/svg" xmlns:xlink="http://www.w3.org/1999/xlink">
    <!-- Generator: Sketch 42 (36781) - http://www.bohemiancoding.com/sketch -->
    <title>logo-website</title>
    <desc>Created with Sketch.</desc>
    <defs>
        <ellipse id="path-1" cx="4.21565026" cy="32.5949919" rx="3.81122793" ry="3.81736122"></ellipse>
        <mask id="mask-2" maskContentUnits="userSpaceOnUse" maskUnits="objectBoundingBox" x="-2" y="-2" width="11.6224559" height="11.6347224">
            <rect x="-1.59557766" y="26.7776307" width="11.6224559" height="11.6347224" fill="white"></rect>
            <use xlink:href="#path-1" fill="black"></use>
        </mask>
    </defs>
    <g id="Logo" stroke="none" stroke-width="1" fill="none" fill-rule="evenodd">
        <g id="logo-word-white-sq" transform="translate(-39.000000, -112.000000)">
            <g id="logo-website" transform="translate(41.000000, 112.000000)">
                <g id="Group" transform="translate(0.960208, 0.000000)">
                    <path d="M23.813887,29.8807941 L8.36901131,29.8807941 L8.36901131,0.679943565 L0.977010583,0.679943565 L0.977010583,36 L23.813887,36 L23.813887,29.8807941 Z M39.6014382,36.4650596 C31.4261791,36.4650596 26.310523,31.2270194 26.310523,22.5132702 C26.310523,13.8974283 31.4996096,8.58595758 39.6014382,8.58595758 C47.7277436,8.58595758 52.8923534,13.8729515 52.8923534,22.5132702 C52.8923534,31.2514962 47.7766973,36.4650596 39.6014382,36.4650596 Z M39.6014382,30.9577743 C43.370869,30.9577743 45.6227368,27.8736946 45.6227368,22.5132702 C45.6227368,17.2017995 43.3463922,14.0687661 39.6014382,14.0687661 C35.8320074,14.0687661 33.5556628,17.2262763 33.5556628,22.5132702 C33.5556628,27.8736946 35.8320074,30.9577743 39.6014382,30.9577743 Z M68.9981033,36.4650596 C60.8228443,36.4650596 55.7071881,31.2270194 55.7071881,22.5132702 C55.7071881,13.8974283 60.8962747,8.58595758 68.9981033,8.58595758 C77.1244088,8.58595758 82.2890185,13.8729515 82.2890185,22.5132702 C82.2890185,31.2514962 77.1733624,36.4650596 68.9981033,36.4650596 Z M68.9981033,30.9577743 C72.7675342,30.9577743 75.0194019,27.8736946 75.0194019,22.5132702 C75.0194019,17.2017995 72.7430573,14.0687661 68.9981033,14.0687661 C65.2286725,14.0687661 62.9523279,17.2262763 62.9523279,22.5132702 C62.9523279,27.8736946 65.2286725,30.9577743 68.9981033,30.9577743 Z M98.4681989,30.2969001 C102.188676,30.2969001 104.587405,27.3107276 104.587405,22.4887934 C104.587405,17.6423823 102.188676,14.5093489 98.4681989,14.5093489 C94.7721986,14.5093489 92.4224235,17.5934287 92.4224235,22.4643166 C92.4224235,27.3596813 94.7477217,30.2969001 98.4681989,30.2969001 Z M98.3458148,46.1578818 C91.3454433,46.1578818 86.523509,42.7311265 85.9605421,37.9336691 L92.9853904,37.9336691 C93.5728342,39.8428613 95.7267947,41.140133 98.5661062,41.140133 C102.408968,41.140133 104.562928,39.0106493 104.562928,35.8041854 L104.562928,31.1046353 L104.416067,31.1046353 C103.118795,33.9929005 99.9612852,35.8286622 96.0694702,35.8286622 C89.5096815,35.8286622 85.1038532,30.7374829 85.1038532,22.4398397 C85.1038532,13.9953356 89.3628206,8.73281853 96.1918543,8.73281853 C100.059192,8.73281853 103.118795,10.6664876 104.538451,13.6526601 L104.660835,13.6526601 L104.660835,9.05101723 L111.71016,9.05101723 L111.71016,35.6083708 C111.71016,42.0457754 106.374213,46.1578818 98.3458148,46.1578818 Z M126.861314,31.1046353 C130.165685,31.1046353 132.809182,29.0485821 132.809182,26.1113633 L132.809182,24.1287406 L127.155036,24.5203697 C124.168864,24.7161843 122.57787,25.8910719 122.57787,27.8736946 C122.57787,29.8563173 124.266771,31.1046353 126.861314,31.1046353 Z M124.536016,36.3181987 C119.346929,36.3181987 115.455114,33.0627812 115.455114,28.2408469 C115.455114,23.3454822 119.200069,20.5796011 126.078056,20.1634951 L132.809182,19.7473891 L132.809182,17.960581 C132.809182,15.3660377 131.022374,13.9463819 128.085155,13.9463819 C125.490612,13.9463819 123.679327,15.3170841 123.336652,17.27523 L116.80134,17.27523 C116.997154,12.135097 121.647751,8.58595758 128.378877,8.58595758 C135.305818,8.58595758 139.834031,12.135097 139.834031,17.5199982 L139.834031,36 L132.931567,36 L132.931567,31.83894 L132.784706,31.83894 C131.316096,34.6537747 127.987248,36.3181987 124.536016,36.3181987 Z M144.631488,36 L151.778721,36 L151.778721,20.9222767 C151.778721,17.1528458 153.908204,14.9009781 157.530774,14.9009781 C158.583278,14.9009781 159.562351,15.0723158 160.174271,15.3170841 L160.174271,9.00206358 C159.660258,8.83072582 158.925953,8.73281853 158.093741,8.73281853 C154.911754,8.73281853 152.586456,10.5441035 151.680813,13.8729515 L151.533952,13.8729515 L151.533952,9.05101723 L144.631488,9.05101723 L144.631488,36 Z M165.11859,3.05419545 L165.11859,9.05101723 L161.471543,9.05101723 L161.471543,14.4603952 L165.11859,14.4603952 L165.11859,28.7303834 C165.11859,33.9929005 167.566272,36.0979073 173.807862,36.0979073 C175.251995,36.0979073 176.524789,35.9510464 177.259094,35.8041854 L177.259094,30.5171915 C176.818511,30.590622 176.108683,30.6395756 175.472286,30.6395756 C173.293849,30.6395756 172.265822,29.6360259 172.265822,27.5554959 L172.265822,14.4603952 L177.259094,14.4603952 L177.259094,9.05101723 L172.265822,9.05101723 L172.265822,3.05419545 L165.11859,3.05419545 Z" id="Loogart" fill="#F75A56"></path>
                    <polygon id="Triangle" fill-opacity="0.2" fill="#000000" points="9.36122547 30 13.1724534 36.0281772 5.54999754 36.0281772"></polygon>
                    <g id="Oval">
                        <use fill="#FFFFFF" fill-rule="evenodd" xlink:href="#path-1"></use>
                        <use stroke="#F75A56" mask="url(#mask-2)" stroke-width="4" xlink:href="#path-1"></use>
                    </g>
                </g>
            </g>
        </g>
    </g>
</svg>